<svg xmlns="http://www.w3.org/2000/svg" viewBox="0 0 512.086 512.086"><path d="M281.963 245.846l-247.68 247.68c-11.84-11.2-18.24-26.56-18.24-43.2V61.846c0-16.96 6.72-32.32 18.88-43.84l247.04 227.84z" fill="#2196f3"/><path d="M496.043 256.086c0 22.4-12.16 42.24-32.32 53.44l-70.4 39.04-87.36-80.64-24-22.08 92.48-92.48 89.28 49.28c20.16 11.2 32.32 31.04 32.32 53.44z" fill="#ffc107"/><path d="M281.963 245.846L34.923 18.006c3.2-3.2 7.36-6.08 11.52-8.64 20.16-12.16 44.48-12.48 65.28-.96l262.72 144.96-92.48 92.48z" fill="#4caf50"/><path d="M393.323 348.566l-281.6 155.2c-9.92 5.76-21.12 8.32-32 8.32-11.52 0-23.04-2.88-33.28-9.28a58.212 58.212 0 01-12.16-9.28l247.68-247.68 24 22.08 87.36 80.64z" fill="#f44336"/></svg>